<?xml version="1.0" encoding="UTF-8" standalone="no"?><!DOCTYPE svg PUBLIC "-//W3C//DTD SVG 1.1//EN" "http://www.w3.org/Graphics/SVG/1.1/DTD/svg11.dtd"><svg width="100%" height="100%" viewBox="0 0 1024 1024" version="1.1" xmlns="http://www.w3.org/2000/svg" xmlns:xlink="http://www.w3.org/1999/xlink" xml:space="preserve" xmlns:serif="http://www.serif.com/" style="fill-rule:evenodd;clip-rule:evenodd;stroke-linejoin:round;stroke-miterlimit:2;"><rect id="favicon" x="0" y="0" width="1024" height="1024" style="fill:none;"/><clipPath id="_clip1"><rect id="favicon1" serif:id="favicon" x="0" y="0" width="1024" height="1024"/></clipPath><g clip-path="url(#_clip1)"><path d="M10.575,499.916c246.109,-49.154 440.187,-243.232 489.341,-489.341c0.101,-0.508 0.202,-1.015 0.302,-1.522c1.386,-5.21 6.139,-9.053 11.782,-9.053c5.643,-0 10.396,3.843 11.782,9.053c0.1,0.507 0.201,1.014 0.302,1.522c49.154,246.109 243.232,440.187 489.341,489.341c0.508,0.101 1.015,0.202 1.522,0.302c5.21,1.386 9.053,6.139 9.053,11.782c-0,5.643 -3.843,10.396 -9.053,11.782c-0.507,0.1 -1.014,0.201 -1.522,0.302c-246.109,49.154 -440.187,243.232 -489.341,489.341c-0.101,0.508 -0.202,1.015 -0.302,1.522c-1.386,5.21 -6.139,9.053 -11.782,9.053c-5.643,-0 -10.396,-3.843 -11.782,-9.053c-0.1,-0.507 -0.201,-1.014 -0.302,-1.522c-49.154,-246.109 -243.232,-440.187 -489.341,-489.341c-0.508,-0.101 -1.015,-0.202 -1.522,-0.302c-5.21,-1.386 -9.053,-6.139 -9.053,-11.782c-0,-5.643 3.843,-10.396 9.053,-11.782c0.507,-0.1 1.014,-0.201 1.522,-0.302Z" style="fill:#fead39;"/></g></svg>